<svg width="138" height="64" viewBox="0 0 138 64" fill="none" xmlns="http://www.w3.org/2000/svg">
<path d="M0 62.0002H33.9315V53.1328H23.0734V3.81909H12.8487V4.63345C12.8487 7.7099 11.1295 9.15764 5.0671 9.15764H0V17.8441H10.8581V53.1328H0V62.0002Z" fill="#20A67D"/>
<path d="M60.1873 63.3575C74.7552 63.3575 83.4417 52.3185 83.4417 32.9549C83.4417 13.7723 74.8457 2.46183 60.1873 2.46183C45.6194 2.46183 36.933 13.5009 36.933 32.9549C36.933 52.047 45.5289 63.3575 60.1873 63.3575ZM60.1873 53.5852C52.8581 53.5852 48.7864 46.0751 48.7864 32.9549C48.7864 19.5633 52.7677 12.2341 60.1873 12.2341C67.426 12.2341 71.4978 19.6538 71.4978 32.9549C71.4978 46.256 67.5165 53.5852 60.1873 53.5852Z" fill="#20A67D"/>
<path d="M123.542 62.0002H137.657L116.122 30.0594L136.119 0.471191H123.361L112.684 15.763L109.879 20.5586L107.074 15.763L96.2155 0.471191H82.1L102.187 30.2404L80.5618 62.0002H93.4105L105.897 44.0844L108.521 39.7412L111.055 44.0844L123.542 62.0002Z" fill="#20A67D"/>
</svg>
