<svg width="22" height="21" viewBox="0 0 22 21" fill="none" xmlns="http://www.w3.org/2000/svg">
<g clip-path="url(#clip0_28_647)">
<path d="M12.6056 5.40639V7.10668H16.8564V16.4583H7.50477V12.2075H5.80448V17.3084C5.80448 17.5339 5.89405 17.7501 6.05348 17.9095C6.21291 18.069 6.42915 18.1585 6.65462 18.1585H17.7065C17.932 18.1585 18.1482 18.069 18.3076 17.9095C18.4671 17.7501 18.5566 17.5339 18.5566 17.3084V6.25653C18.5566 6.03106 18.4671 5.81482 18.3076 5.65539C18.1482 5.49596 17.932 5.40639 17.7065 5.40639H12.6056ZM3.25405 2.85596V9.65711H4.95434V5.7575L11.5795 12.3835L12.7816 11.1814L6.15729 4.55625H10.0552V2.85596H3.25405Z" fill="#1D1D28"/>
</g>
<defs>
<clipPath id="clip0_28_647">
<rect width="20.4035" height="20.4035" fill="white" transform="matrix(-1 0 0 1 21.1064 0.305664)"/>
</clipPath>
</defs>
</svg>
