<svg width="76" height="21" viewBox="0 0 76 21" fill="none" xmlns="http://www.w3.org/2000/svg">
<g clip-path="url(#clip0_28_810)">
<path d="M6.52312 17.9011C4.9094 17.9011 3.39466 17.4547 2.07976 16.675L0.700195 19.2601C2.4225 20.2846 4.40766 20.8714 6.52312 20.8714C8.63859 20.8714 10.6238 20.2846 12.3461 19.2601L10.9664 16.675C9.6515 17.4547 8.13684 17.9011 6.52312 17.9011Z" fill="white"/>
<path d="M14.6423 0V3.15063H11.977C11.9758 3.15063 11.9726 3.15151 11.9708 3.15177C12.6256 4.24592 13.0033 5.56314 13.0033 7.00438C13.0033 10.9396 10.1589 14.0278 6.50165 14.0278C2.81907 14.0278 0 10.9396 0 7.00438C0 3.04176 2.81907 0.00831417 6.50165 0.00831417C8.20354 0.00831417 9.72885 0.665746 10.874 1.7675C11.1809 1.40072 11.6562 0.867387 11.9374 0.643779C12.245 0.39908 12.1982 0.406869 12.5293 0.243736C12.8606 0.0805162 13.4223 0 14.6423 0ZM29.628 0.00831417C33.2852 0.00831417 36.1297 3.04176 36.1297 7.00438C36.1297 10.9396 33.2852 14.0278 29.628 14.0278C25.9455 14.0278 23.1264 10.9396 23.1264 7.00438C23.1264 3.04176 25.9455 0.00831417 29.628 0.00831417ZM44.1343 0.00927686C47.7912 0.00927686 50.6355 3.04255 50.6355 7.00491C50.6355 10.9399 47.7912 14.0278 44.1343 14.0278C40.4519 14.0278 37.633 10.9399 37.633 7.00491C37.633 3.04255 40.4519 0.00927686 44.1343 0.00927686ZM69.9449 0.00170659C71.0359 0.00170659 71.9744 0.211399 72.7347 0.625007C73.4918 1.03713 74.1238 1.58437 74.6133 2.25152C75.1005 2.917 75.4579 3.67631 75.6756 4.5086C75.891 5.33433 76.0002 6.18482 76.0002 7.03689V8.00895H66.35C66.3739 8.46142 66.4799 8.9846 66.6664 9.36329C66.8823 9.80219 67.1699 10.1818 67.5216 10.491C67.8763 10.8035 68.2931 11.0494 68.7601 11.2223C69.2295 11.3967 69.7221 11.4849 70.2242 11.4849C70.8967 11.4849 71.4873 11.3159 71.98 10.9824C72.4857 10.6399 72.9578 10.1807 73.383 9.61788L73.4968 9.46699L75.5166 11.1289L75.4022 11.288C74.1008 13.0992 72.2562 14.0174 69.9192 14.0174C68.9508 14.0174 68.0593 13.8374 67.2686 13.4827C66.4778 13.1276 65.798 12.6287 65.2485 11.9997C64.7005 11.3724 64.2727 10.6233 63.9774 9.77278C63.683 8.92544 63.5336 7.996 63.5336 7.00976C63.5336 6.02178 63.6962 5.09024 64.0176 4.24132C64.3383 3.39187 64.7874 2.64377 65.3521 2.01732C65.9176 1.39009 66.6007 0.892023 67.3824 0.536702C68.1648 0.181643 69.0269 0.00170659 69.9449 0.00170659ZM53.6599 0.316131L56.9786 9.93055L60.3475 0.316131H63.2639L58.4429 13.7063H55.5149L50.7434 0.316131H53.6599ZM22.5409 8.75175e-06V3.15064H19.8756C19.8486 3.15064 19.6706 3.21311 19.4825 3.2813L19.416 3.30552C19.3051 3.34596 19.1966 3.38608 19.119 3.41433V13.7063H16.435V0.313409H19.119V1.3666C19.3725 1.08216 19.6479 0.793443 19.836 0.643788C20.1437 0.399089 20.0968 0.406878 20.428 0.243745C20.7592 0.0805249 21.321 8.75175e-06 22.5409 8.75175e-06ZM44.1343 2.93324C42.0518 2.93324 40.4519 4.76411 40.4519 7.00491C40.4519 9.24562 42.0518 11.0766 44.1343 11.0766C46.2421 11.0766 47.7912 9.24562 47.7912 7.00491C47.7912 4.76411 46.2421 2.93324 44.1343 2.93324ZM6.50165 2.93245C4.41913 2.93245 2.81907 4.76341 2.81907 7.00438C2.81907 9.24527 4.41913 11.0763 6.50165 11.0763C8.60963 11.0763 10.1589 9.24527 10.1589 7.00438C10.1589 4.76341 8.60963 2.93245 6.50165 2.93245ZM29.628 2.93245C27.5455 2.93245 25.9455 4.76349 25.9455 7.00438C25.9455 9.24527 27.5455 11.0763 29.628 11.0763C31.736 11.0763 33.2852 9.24527 33.2852 7.00438C33.2852 4.76349 31.736 2.93245 29.628 2.93245ZM69.894 2.37046C69.3646 2.37046 68.8734 2.47942 68.4338 2.69436C67.9915 2.91079 67.6134 3.1947 67.31 3.53855C67.0053 3.8839 66.7652 4.27361 66.5964 4.69641C66.4565 5.0478 66.3744 5.29171 66.3514 5.63583H73.1792C73.1509 5.18957 73.0764 4.88107 72.9575 4.50387C72.8226 4.07749 72.6179 3.70134 72.3487 3.38566C72.0798 3.07147 71.7386 2.82117 71.335 2.64246C70.9277 2.46191 70.4428 2.37046 69.894 2.37046Z" fill="white"/>
</g>
<defs>
<clipPath id="clip0_28_810">
<rect width="76" height="21" fill="white"/>
</clipPath>
</defs>
</svg>
