<svg width="192" height="51" viewBox="0 0 192 51" fill="none" xmlns="http://www.w3.org/2000/svg">
<g clip-path="url(#clip0_28_798)">
<path d="M16.4801 43.474C12.4033 43.474 8.57661 42.3901 5.25475 40.4965L1.76953 46.7744C6.1206 49.2626 11.1358 50.6877 16.4801 50.6877C21.8244 50.6877 26.8396 49.2626 31.1906 46.7744L27.7052 40.4965C24.3834 42.3901 20.5569 43.474 16.4801 43.474Z" fill="#AF7CFF"/>
<path d="M36.9911 0V7.65154H30.2576C30.2547 7.65154 30.2465 7.65366 30.242 7.6543C31.8962 10.3115 32.8504 13.5105 32.8504 17.0106C32.8504 26.5676 25.6645 34.0676 16.4252 34.0676C7.12186 34.0676 0 26.5676 0 17.0106C0 7.38713 7.12186 0.0201916 16.4252 0.0201916C20.7247 0.0201916 24.5781 1.61681 27.4712 4.29251C28.2464 3.40175 29.4472 2.10651 30.1575 1.56346C30.9348 0.969195 30.8165 0.988111 31.653 0.591931C32.4898 0.195539 33.909 0 36.9911 0ZM74.8498 0.0201916C84.089 0.0201916 91.275 7.38713 91.275 17.0106C91.275 26.5676 84.089 34.0676 74.8498 34.0676C65.5464 34.0676 58.4246 26.5676 58.4246 17.0106C58.4246 7.38713 65.5464 0.0201916 74.8498 0.0201916ZM111.497 0.0225295C120.736 0.0225295 127.921 7.38905 127.921 17.0119C127.921 26.5683 120.736 34.0676 111.497 34.0676C102.194 34.0676 95.0729 26.5683 95.0729 17.0119C95.0729 7.38905 102.194 0.0225295 111.497 0.0225295ZM176.703 0.00414458C179.459 0.00414458 181.83 0.513397 183.751 1.51787C185.663 2.51874 187.26 3.84777 188.497 5.46798C189.728 7.08415 190.631 8.92817 191.18 10.9495C191.725 12.9548 192 15.0203 192 17.0896V19.4503H167.621C167.681 20.5492 167.949 21.8197 168.42 22.7394C168.966 23.8053 169.692 24.7271 170.581 25.478C171.477 26.237 172.53 26.8343 173.71 27.2542C174.895 27.6776 176.14 27.8919 177.408 27.8919C179.107 27.8919 180.6 27.4814 181.844 26.6717C183.122 25.8398 184.314 24.7246 185.389 23.3577L185.676 22.9913L190.779 27.0272L190.49 27.4136C187.202 31.8124 182.542 34.0422 176.638 34.0422C174.192 34.0422 171.939 33.605 169.942 32.7436C167.944 31.8813 166.226 30.6698 164.838 29.142C163.454 27.6188 162.373 25.7994 161.627 23.7339C160.883 21.6761 160.506 19.4189 160.506 17.0237C160.506 14.6243 160.917 12.362 161.729 10.3003C162.539 8.23741 163.673 6.4206 165.1 4.89922C166.529 3.37592 168.254 2.16634 170.229 1.30342C172.206 0.441132 174.384 0.00414458 176.703 0.00414458ZM135.562 0.767747L143.946 24.117L152.457 0.767747H159.825L147.645 33.2868H140.248L128.194 0.767747H135.562ZM56.9455 2.12542e-05V7.65156H50.212C50.1438 7.65156 49.6941 7.80326 49.219 7.96888L49.0509 8.02768C48.7709 8.12591 48.4966 8.22335 48.3005 8.29195V33.2868H41.5199V0.761137H48.3005V3.31888C48.9412 2.62811 49.6367 1.92693 50.1119 1.56349C50.8895 0.969216 50.7709 0.988132 51.6076 0.591953C52.4443 0.195561 53.8635 2.12542e-05 56.9455 2.12542e-05ZM111.497 7.12358C106.236 7.12358 102.194 11.57 102.194 17.0119C102.194 22.4536 106.236 26.9003 111.497 26.9003C116.822 26.9003 120.736 22.4536 120.736 17.0119C120.736 11.57 116.822 7.12358 111.497 7.12358ZM16.4252 7.12167C11.1641 7.12167 7.12186 11.5683 7.12186 17.0106C7.12186 22.4528 11.1641 26.8996 16.4252 26.8996C21.7506 26.8996 25.6645 22.4528 25.6645 17.0106C25.6645 11.5683 21.7506 7.12167 16.4252 7.12167ZM74.8498 7.12167C69.5887 7.12167 65.5464 11.5685 65.5464 17.0106C65.5464 22.4528 69.5887 26.8996 74.8498 26.8996C80.1752 26.8996 84.089 22.4528 84.089 17.0106C84.089 11.5685 80.1752 7.12167 74.8498 7.12167ZM176.574 5.75682C175.237 5.75682 173.996 6.02144 172.885 6.54345C171.768 7.06906 170.813 7.75855 170.046 8.59363C169.276 9.43233 168.67 10.3788 168.244 11.4056C167.89 12.2589 167.683 12.8513 167.625 13.687H184.874C184.802 12.6032 184.614 11.854 184.314 10.938C183.973 9.90247 183.456 8.98896 182.776 8.22232C182.096 7.45929 181.234 6.85142 180.215 6.41741C179.186 5.97893 177.961 5.75682 176.574 5.75682Z" fill="#AF7CFF"/>
</g>
<defs>
<clipPath id="clip0_28_798">
<rect width="192" height="51" fill="white"/>
</clipPath>
</defs>
</svg>
