<svg width="18" height="19" viewBox="0 0 18 19" fill="none" xmlns="http://www.w3.org/2000/svg">
<path fill-rule="evenodd" clip-rule="evenodd" d="M9.06156 12.0869V12.0869C9.7475 11.1701 10.5327 10.3319 11.4028 9.58757L11.4172 9.57521C11.4952 9.50847 11.5402 9.41096 11.5402 9.3083C11.5402 9.20565 11.4952 9.10813 11.4172 9.0414L11.4028 9.02904C10.5327 8.28475 9.74751 7.44656 9.06156 6.52975V6.52975C8.9964 6.44265 8.89399 6.39136 8.78521 6.39136C8.67643 6.39136 8.57402 6.44265 8.50887 6.52975V6.52975C7.82292 7.44658 7.03774 8.28478 6.16763 9.02909L6.15318 9.04145C6.07518 9.10818 6.03027 9.2057 6.03027 9.30835C6.03027 9.41101 6.07518 9.50852 6.15318 9.57526L6.16763 9.58762C7.03774 10.3319 7.82292 11.1701 8.50887 12.087V12.087C8.57403 12.1741 8.67645 12.2253 8.78523 12.2253C8.89401 12.2253 8.99641 12.174 9.06156 12.0869V12.0869Z" stroke="#FFBE2E" stroke-width="1.09341" stroke-linecap="round" stroke-linejoin="round"/>
<path d="M13.426 4.66817C15.303 6.54523 15.8645 9.36818 14.8487 11.8207C13.8328 14.2732 11.4396 15.8723 8.78508 15.8723C6.13051 15.8723 3.73733 14.2732 2.72147 11.8207C1.70561 9.36818 2.26713 6.54523 4.14419 4.66817C6.70728 2.10508 10.8629 2.10508 13.426 4.66817" stroke="#FFBE2E" stroke-width="1.09341" stroke-linecap="round" stroke-linejoin="round"/>
<path d="M13.426 4.66817C15.303 6.54523 15.8645 9.36818 14.8487 11.8207C13.8328 14.2732 11.4396 15.8723 8.78508 15.8723C6.13051 15.8723 3.73733 14.2732 2.72147 11.8207C1.70561 9.36818 2.26713 6.54523 4.14419 4.66817C6.70728 2.10508 10.8629 2.10508 13.426 4.66817" stroke="#FFBE2E" stroke-width="1.09341" stroke-linecap="round" stroke-linejoin="round"/>
</svg>
