<svg width="124" height="26" viewBox="0 0 124 26" fill="none" xmlns="http://www.w3.org/2000/svg">
<path d="M0 0.491228H5.09304V22.3509H14.3595V26H0V0.491228Z" fill="white"/>
<path d="M18.8248 0.491228H34.2454V4.10526H23.8825V22.386H34.8113V26H18.8248V0.491228ZM25.2265 14.386C25.3444 14.0117 25.4976 13.614 25.6863 13.193C25.8749 12.7719 26.1107 12.386 26.3936 12.0351C26.6766 11.6842 27.0067 11.4035 27.3839 11.193C27.7848 10.9591 28.2446 10.8421 28.7633 10.8421H33.0429V14.386H25.2265Z" fill="white"/>
<path d="M39.6175 0.491228H55.0381V4.10526H44.6752V22.386H55.604V26H39.6175V0.491228ZM46.0192 14.386C46.1371 14.0117 46.2903 13.614 46.479 13.193C46.6676 12.7719 46.9034 12.386 47.1863 12.0351C47.4693 11.6842 47.7994 11.4035 48.1767 11.193C48.5775 10.9591 49.0373 10.8421 49.556 10.8421H53.8356V14.386H46.0192Z" fill="white"/>
<path d="M60.3749 0.491228H65.4679V22.3509H74.7344V26H60.3749V0.491228Z" fill="white"/>
<path d="M84.1866 20.4211L82.3121 26H77.3251L86.5563 0.491228H91.5078L100.739 26H95.5045L89.1382 7.01755L88.8552 5.7193L88.5369 7.08772L85.5306 16.1754L85.1062 16.8772L85.6367 16.807H88.3247C88.8434 16.807 89.2914 16.924 89.6687 17.1579C90.0459 17.3918 90.3761 17.6842 90.659 18.0351C90.9419 18.386 91.1777 18.7836 91.3664 19.2281C91.5786 19.6491 91.7436 20.0468 91.8615 20.4211H84.1866Z" fill="white"/>
<path d="M122.904 7.82456C122.904 9.22807 122.585 10.4444 121.949 11.4737C121.312 12.5029 120.463 13.3333 119.402 13.9649L118.412 14.3509C118.506 14.3977 118.636 14.4561 118.801 14.5263C118.966 14.5965 119.096 14.6667 119.19 14.7368C119.897 15.345 120.451 16.0702 120.852 16.9123C121.253 17.731 121.595 18.6316 121.878 19.614C122.184 20.5731 122.479 21.6023 122.762 22.7018C123.069 23.7778 123.481 24.8772 124 26H118.801C118.376 25.1111 118.035 24.1637 117.775 23.1579C117.539 22.1287 117.28 21.1345 116.997 20.1754C116.714 19.2164 116.384 18.3275 116.007 17.5088C115.63 16.6901 115.111 16.0234 114.451 15.5088C113.955 15.5556 113.425 15.5673 112.859 15.5439C112.317 15.4971 111.739 15.3801 111.126 15.193C111.267 14.8655 111.421 14.5263 111.586 14.1754C111.774 13.8012 111.987 13.462 112.222 13.1579C112.482 12.8304 112.765 12.5614 113.071 12.3509C113.401 12.1404 113.767 12.0117 114.168 11.9649C114.663 11.9181 115.123 11.7895 115.547 11.5789C115.971 11.345 116.337 11.0526 116.643 10.7018C116.973 10.3275 117.233 9.89474 117.421 9.40351C117.61 8.91228 117.704 8.38597 117.704 7.82456C117.704 7.21638 117.575 6.65497 117.315 6.14035C117.056 5.62573 116.702 5.18129 116.254 4.80702C115.83 4.43275 115.311 4.14035 114.698 3.92983C114.109 3.7193 113.472 3.61404 112.788 3.61404C112.458 3.61404 112.175 3.62573 111.939 3.64912C111.727 3.64912 111.515 3.66082 111.303 3.68421C111.091 3.68421 110.867 3.7076 110.631 3.75439C110.395 3.77778 110.124 3.80117 109.817 3.82456V26H104.724V0.807018C105.667 0.643276 106.504 0.514621 107.235 0.421053C107.966 0.304095 108.627 0.222223 109.216 0.175438C109.829 0.105264 110.419 0.0584809 110.984 0.0350894C111.55 0.0116965 112.152 0 112.788 0C114.179 0 115.488 0.175439 116.714 0.526317C117.94 0.877194 119.013 1.39181 119.933 2.07018C120.852 2.72515 121.571 3.54386 122.09 4.52632C122.632 5.48538 122.904 6.5848 122.904 7.82456Z" fill="white"/>
</svg>
