<svg width="70" height="14" viewBox="0 0 70 14" fill="none" xmlns="http://www.w3.org/2000/svg">
<path d="M0 0.264507H2.8751V12.0351H8.10619V14H0V0.264507Z" fill="#1E1515"/>
<path d="M10.6269 0.264507H19.3321V2.21053H13.482V12.054H19.6515V14H10.6269V0.264507ZM14.2407 7.74629C14.3073 7.54476 14.3938 7.33064 14.5003 7.10391C14.6068 6.87719 14.7399 6.66937 14.8996 6.48043C15.0594 6.2915 15.2457 6.14035 15.4587 6.02699C15.685 5.90104 15.9445 5.83806 16.2373 5.83806H18.6532V7.74629H14.2407Z" fill="#1E1515"/>
<path d="M22.3647 0.264507H31.0699V2.21053H25.2199V12.054H31.3894V14H22.3647V0.264507ZM25.9786 7.74629C26.0451 7.54476 26.1316 7.33064 26.2381 7.10391C26.3446 6.87719 26.4777 6.66937 26.6374 6.48043C26.7972 6.2915 26.9835 6.14035 27.1965 6.02699C27.4228 5.90104 27.6823 5.83806 27.9752 5.83806H30.3911V7.74629H25.9786Z" fill="#1E1515"/>
<path d="M34.0826 0.264507H36.9577V12.0351H42.1888V14H34.0826V0.264507Z" fill="#1E1515"/>
<path d="M47.5247 10.996L46.4665 14H43.6513L48.8624 0.264507H51.6577L56.8688 14H53.9138L50.3199 3.77868L50.1602 3.07962L49.9805 3.81646L48.2834 8.70985L48.0438 9.08772L48.3433 9.04993H49.8607C50.1535 9.04993 50.4064 9.11291 50.6194 9.23887C50.8324 9.36482 51.0187 9.52227 51.1785 9.7112C51.3382 9.90014 51.4713 10.1143 51.5778 10.3536C51.6976 10.5803 51.7908 10.7944 51.8573 10.996H47.5247Z" fill="#1E1515"/>
<path d="M69.3811 4.21323C69.3811 4.96896 69.2014 5.62393 68.842 6.17814C68.4826 6.73234 68.0034 7.17949 67.4044 7.51957L66.8454 7.7274C66.8986 7.75259 66.9718 7.78408 67.065 7.82186C67.1582 7.85965 67.2314 7.89744 67.2846 7.93522C67.6839 8.26271 67.9967 8.65317 68.223 9.10661C68.4493 9.54746 68.6423 10.0324 68.802 10.5614C68.9751 11.0778 69.1415 11.632 69.3012 12.224C69.4742 12.8034 69.7072 13.3954 70 14H67.065C66.8254 13.5214 66.6324 13.0112 66.486 12.4696C66.3529 11.9154 66.2065 11.3801 66.0467 10.8637C65.887 10.3473 65.7007 9.86865 65.4877 9.4278C65.2747 8.98696 64.9819 8.62798 64.6092 8.35088C64.3297 8.37607 64.0302 8.38237 63.7107 8.36977C63.4046 8.34458 63.0785 8.2816 62.7324 8.18084C62.8122 8.0045 62.8988 7.82186 62.9919 7.63293C63.0984 7.4314 63.2182 7.24876 63.3513 7.08502C63.4977 6.90868 63.6575 6.76383 63.8305 6.65047C64.0169 6.53711 64.2232 6.46784 64.4495 6.44265C64.729 6.41745 64.9885 6.34818 65.2281 6.23482C65.4677 6.10886 65.674 5.95142 65.8471 5.76248C66.0334 5.56095 66.1798 5.32794 66.2863 5.06343C66.3928 4.79892 66.4461 4.51552 66.4461 4.21323C66.4461 3.88574 66.3728 3.58345 66.2264 3.30634C66.08 3.02924 65.8804 2.78992 65.6274 2.58839C65.3879 2.38687 65.095 2.22942 64.7489 2.11606C64.4162 2.0027 64.0568 1.94602 63.6708 1.94602C63.4844 1.94602 63.3247 1.95232 63.1916 1.96491C63.0718 1.96491 62.952 1.97121 62.8322 1.98381C62.7124 1.98381 62.586 1.9964 62.4529 2.02159C62.3197 2.03419 62.1667 2.04678 61.9936 2.05938V14H59.1185V0.434548C59.651 0.346379 60.1235 0.277104 60.5361 0.226721C60.9487 0.163743 61.3214 0.119658 61.6542 0.0944668C62.0003 0.0566806 62.3331 0.0314897 62.6525 0.0188943C62.972 0.00629809 63.3114 0 63.6708 0C64.4561 0 65.1948 0.0944672 65.887 0.283402C66.5792 0.472335 67.1848 0.749438 67.7039 1.11471C68.223 1.46739 68.629 1.90823 68.9218 2.43725C69.228 2.95367 69.3811 3.54566 69.3811 4.21323Z" fill="#1E1515"/>
</svg>
