<svg width="20" height="10" viewBox="0 0 20 10" fill="none" xmlns="http://www.w3.org/2000/svg">
<path d="M6.0487 4.27433C6.43434 5.71355 5.58126 7.19262 4.14331 7.57792C2.70535 7.96322 1.22704 7.10884 0.8414 5.66962C0.455761 4.2304 1.30883 2.75133 2.74679 2.36603C4.18474 1.98073 5.66306 2.83511 6.0487 4.27433Z" fill="#FFBE2E"/>
<path d="M6.19715 7.5064L4.56123 1.40105L10.5865 3.05843L6.19715 7.5064Z" fill="#FFBE2E"/>
<path d="M13.4835 5.59066C13.0979 4.15144 13.951 2.67237 15.3889 2.28707C16.8269 1.90177 18.3052 2.75615 18.6908 4.19537C19.0765 5.63459 18.2234 7.11366 16.7854 7.49896C15.3475 7.88426 13.8692 7.02988 13.4835 5.59066Z" fill="#50589F"/>
<path d="M13.3351 2.35859L14.971 8.46394L8.94574 6.80656L13.3351 2.35859Z" fill="#50589F"/>
</svg>
