<svg width="15" height="13" viewBox="0 0 15 13" fill="none" xmlns="http://www.w3.org/2000/svg">
<path d="M14.4479 4.56655L10.2068 3.97489L8.31093 0.285415C8.25915 0.184399 8.17396 0.102625 8.06872 0.0529188C7.8048 -0.072148 7.48409 0.0320744 7.35213 0.285415L5.45624 3.97489L1.21514 4.56655C1.09821 4.58258 0.991306 4.6355 0.909457 4.71567C0.810507 4.81329 0.75598 4.94464 0.75786 5.08083C0.759739 5.21703 0.81787 5.34694 0.91948 5.44202L3.98798 8.31375L3.26303 12.3688C3.24603 12.4631 3.2569 12.5601 3.29442 12.6488C3.33193 12.7375 3.39459 12.8144 3.47528 12.8706C3.55597 12.9269 3.65147 12.9603 3.75095 12.9671C3.85042 12.9739 3.9499 12.9538 4.03809 12.9092L7.83153 10.9947L11.625 12.9092C11.7285 12.9621 11.8488 12.9797 11.9641 12.9605C12.2547 12.9124 12.4501 12.6478 12.4 12.3688L11.6751 8.31375L14.7436 5.44202C14.8271 5.36345 14.8822 5.26083 14.8989 5.14859C14.944 4.86799 14.7402 4.60824 14.4479 4.56655Z" fill="#FFBE2E"/>
</svg>
