<svg width="31" height="31" viewBox="0 0 31 31" fill="none" xmlns="http://www.w3.org/2000/svg">
<path d="M15.6118 30.1126C7.44842 30.1126 0.831055 23.4953 0.831055 15.3318C0.831055 7.16839 7.44842 0.551025 15.6118 0.551025C23.7753 0.551025 30.3926 7.16839 30.3926 15.3318C30.3926 23.4953 23.7753 30.1126 15.6118 30.1126ZM15.6118 27.1565C18.7479 27.1565 21.7556 25.9106 23.9731 23.6931C26.1907 21.4756 27.4365 18.4679 27.4365 15.3318C27.4365 12.1957 26.1907 9.18809 23.9731 6.97054C21.7556 4.75299 18.7479 3.50718 15.6118 3.50718C12.4758 3.50718 9.46812 4.75299 7.25057 6.97054C5.03302 9.18809 3.78721 12.1957 3.78721 15.3318C3.78721 18.4679 5.03302 21.4756 7.25057 23.6931C9.46812 25.9106 12.4758 27.1565 15.6118 27.1565Z" fill="#525AA0"/>
</svg>
