<svg width="16" height="21" viewBox="0 0 16 21" fill="none" xmlns="http://www.w3.org/2000/svg">
<path d="M8 5.001C10.1217 5.001 12.1566 5.84385 13.6569 7.34415C15.1571 8.84444 16 10.8793 16 13.001C16 15.1227 15.1571 17.1576 13.6569 18.6579C12.1566 20.1581 10.1217 21.001 8 21.001C5.87827 21.001 3.84344 20.1581 2.34315 18.6579C0.842855 17.1576 0 15.1227 0 13.001C0 10.8793 0.842855 8.84444 2.34315 7.34415C3.84344 5.84385 5.87827 5.001 8 5.001V5.001ZM8 8.501L6.677 11.181L3.72 11.611L5.86 13.696L5.355 16.642L8 15.251L10.645 16.641L10.14 13.696L12.28 11.61L9.323 11.18L8 8.501ZM9 0L14 0.00100005V3.001L12.637 4.139C11.5059 3.54558 10.2711 3.17583 9 3.05V0.00100005V0ZM7 0V3.05C5.72935 3.17565 4.49482 3.54505 3.364 4.138L2 3.001V0.00100005L7 0V0Z" fill="#A285D0"/>
</svg>
