<svg width="13" height="13" viewBox="0 0 13 13" fill="none" xmlns="http://www.w3.org/2000/svg">
<path d="M2.17768 10.3902H3.40941V11.622H10.7998V1.76811H3.40941V2.99984H2.17768V1.15224C2.17768 0.988905 2.24256 0.832257 2.35806 0.71676C2.47356 0.601263 2.63021 0.536377 2.79354 0.536377H11.4157C11.579 0.536377 11.7357 0.601263 11.8512 0.71676C11.9667 0.832257 12.0315 0.988905 12.0315 1.15224V12.2378C12.0315 12.4012 11.9667 12.5578 11.8512 12.6733C11.7357 12.7888 11.579 12.8537 11.4157 12.8537H2.79354C2.63021 12.8537 2.47356 12.7888 2.35806 12.6733C2.24256 12.5578 2.17768 12.4012 2.17768 12.2378V10.3902ZM3.40941 6.07917H7.72048V7.31091H3.40941V9.15851L0.330078 6.69504L3.40941 4.23158V6.07917Z" fill="black"/>
</svg>
