<svg width="15" height="14" viewBox="0 0 15 14" fill="none" xmlns="http://www.w3.org/2000/svg">
<path d="M13.7798 5.47078L9.57689 4.88444L7.69806 1.22816C7.64674 1.12805 7.56232 1.04701 7.45803 0.997755C7.19649 0.873814 6.87866 0.977098 6.74788 1.22816L4.86905 4.88444L0.666102 5.47078C0.550227 5.48667 0.444284 5.53911 0.363171 5.61856C0.265111 5.71531 0.211075 5.84547 0.212937 5.98044C0.2148 6.11541 0.272408 6.24415 0.373103 6.33837L3.414 9.18427L2.69557 13.2028C2.67872 13.2963 2.6895 13.3925 2.72668 13.4804C2.76386 13.5683 2.82595 13.6444 2.90591 13.7002C2.98588 13.7559 3.08052 13.789 3.1791 13.7958C3.27768 13.8025 3.37626 13.7826 3.46366 13.7383L7.22297 11.8411L10.9823 13.7383C11.0849 13.7908 11.2041 13.8082 11.3183 13.7892C11.6064 13.7415 11.8 13.4793 11.7504 13.2028L11.032 9.18427L14.0728 6.33837C14.1556 6.26051 14.2102 6.15882 14.2268 6.04759C14.2715 5.76951 14.0695 5.5121 13.7798 5.47078Z" fill="#FFBE2E"/>
</svg>
