<svg width="41" height="41" viewBox="0 0 41 41" fill="none" xmlns="http://www.w3.org/2000/svg">
<path d="M20.5128 40.9112C9.244 40.9112 0.109375 31.7765 0.109375 20.5077C0.109375 9.23888 9.244 0.104248 20.5128 0.104248C31.7817 0.104248 40.9163 9.23888 40.9163 20.5077C40.9163 31.7765 31.7817 40.9112 20.5128 40.9112ZM20.5128 36.8305C24.8419 36.8305 28.9937 35.1108 32.0548 32.0496C35.1159 28.9885 36.8356 24.8368 36.8356 20.5077C36.8356 16.1786 35.1159 12.0269 32.0548 8.96577C28.9937 5.90465 24.8419 4.18494 20.5128 4.18494C16.1838 4.18494 12.032 5.90465 8.97089 8.96577C5.90978 12.0269 4.19007 16.1786 4.19007 20.5077C4.19007 24.8368 5.90978 28.9885 8.97089 32.0496C12.032 35.1108 16.1838 36.8305 20.5128 36.8305Z" fill="#525AA0"/>
</svg>
