<svg width="13" height="13" viewBox="0 0 13 13" fill="none" xmlns="http://www.w3.org/2000/svg">
<path d="M5.25701 3.42162C5.25688 4.27807 5.51186 5.11514 5.98941 5.82609C6.46697 6.53704 7.14546 7.08963 7.93835 7.4134C8.73125 7.73716 9.60261 7.81742 10.4413 7.64395C11.28 7.47047 12.048 7.05111 12.6474 6.43936V6.50095C12.6474 9.90238 9.89017 12.6596 6.48874 12.6596C3.08731 12.6596 0.330078 9.90238 0.330078 6.50095C0.330078 3.09952 3.08731 0.342285 6.48874 0.342285H6.55033C6.14018 0.743291 5.81446 1.22234 5.59234 1.75119C5.37022 2.28005 5.2562 2.84801 5.25701 3.42162V3.42162ZM1.56181 6.50095C1.56136 7.60026 1.92858 8.66814 2.60502 9.53468C3.28147 10.4012 4.22829 11.0167 5.29483 11.283C6.36138 11.5494 7.48637 11.4515 8.49083 11.0048C9.49528 10.5581 10.3215 9.78825 10.838 8.81784C9.91877 9.0344 8.95947 9.0125 8.05109 8.75423C7.14271 8.49596 6.31538 8.00987 5.6476 7.34209C4.97982 6.67431 4.49373 5.84699 4.23546 4.93861C3.97719 4.03023 3.95529 3.07092 4.17185 2.1517C3.38328 2.57181 2.72382 3.19847 2.26406 3.96459C1.80429 4.73072 1.56155 5.60746 1.56181 6.50095V6.50095Z" fill="#181818"/>
</svg>
